<svg width="800px" height="800px" viewBox="0 0 1024 1024" class="icon"  version="1.1" xmlns="http://www.w3.org/2000/svg"><path d="M792 221l-48-13 48-13 13-48 13 48 48 13-48 13-13 48-13-48zM840 274l-19-5 19-4 4-19 4 19 19 4-19 5-4 19-4-19z" fill="#4c956c" /><path d="M190 247m-9 0a9 9 0 1 0 18 0 9 9 0 1 0-18 0Z" fill="#fefee3" /><path d="M254 841l-33-7 33-8 7-32 8 32 32 8-32 7-8 33-7-33zM187 561l-15-4 15-3 3-15 4 15 14 3-14 4-4 14-3-14z" fill="#4c956c" /><path d="M844 771a25 25 0 1 1 25-25 25 25 0 0 1-25 25z m0-36a10 10 0 1 0 10 10 10 10 0 0 0-10-10z" fill="#fefee3" /><path d="M303 502a10 10 0 0 0 10 9c38 2 73-1 106-9s45-14 63-24a19 19 0 0 1-7-14v-89c0-8 6-16 14-18-12-17-30-28-56-33-13-3-28-4-45-4s-58 4-93 11a10 10 0 0 0-8 11z m149-66a13 13 0 1 1-13-13 13 13 0 0 1 13 13z m-21-76a13 13 0 1 1-13 13 13 13 0 0 1 13-13z m-21 98a13 13 0 1 1-13-13 13 13 0 0 1 13 13z m-6-48a13 13 0 1 1-13-13 13 13 0 0 1 14 13z m-19-63a13 13 0 1 1-13 13 13 13 0 0 1 14-13z m-42 144a13 13 0 1 1 13-13 13 13 0 0 1-13 13z m11-69a13 13 0 1 1-13-13 13 13 0 0 1 13 14z m-23-69a13 13 0 1 1-13 13 13 13 0 0 1 13-12zM547 375v89a19 19 0 0 1-8 15c18 9 38 17 61 23s69 11 106 9a10 10 0 0 0 10-9l16-161a10 10 0 0 0-8-11c-35-7-67-11-93-11s-32 1-45 4c-26 6-44 16-56 33 10 2 17 9 17 19z m141-20a13 13 0 1 1-13 13 13 13 0 0 1 14-14z m-10 56a13 13 0 1 1-13 13 13 13 0 0 1 14-14z m-2 56a13 13 0 1 1-13 13 13 13 0 0 1 14-15z m-42-120a13 13 0 1 1-13 13 13 13 0 0 1 13-13z m-6 50a13 13 0 1 1-13 13 13 13 0 0 1 13-13z m-6 48a13 13 0 1 1-13 13 13 13 0 0 1 14-13z m-34-85a13 13 0 1 1-13 13 13 13 0 0 1 14-13z m-8 63a13 13 0 1 1-13 13 13 13 0 0 1 14-13z" fill="#d68c45" /><path d="M283 504a30 30 0 0 0 28 27h23a366 366 0 0 0 89-11c34-9 63-21 86-37 23 16 52 29 86 37a366 366 0 0 0 89 11h23a30 30 0 0 0 28-27l16-161a30 30 0 0 0-24-33l-23-4c-3-9-13-40-21-73v-3l12-32c7-17 13-50-2-64s-13-9-27-3-14 27-13 42 4 33 9 56l-27 71c-20 0-38 1-54 5-34 7-59 24-73 48-14-25-38-41-73-48-14-3-30-5-47-5l-27-71c5-23 8-42 9-56s1-36-13-42-23-1-27 3-9 47-2 64l12 32v3c-8 32-17 62-20 72l-30 5a30 30 0 0 0-24 33z m392-356h5c4 4 5 24-3 42v3c-6-35-2-44-2-45z m-4 113c4 17 9 31 12 41l-26-3z m-85 61q20-4 45-4c27 0 58 4 93 11a10 10 0 0 1 8 11l-16 162a10 10 0 0 1-10 9c-38 2-73-1-106-9s-44-13-61-23a19 19 0 0 0 8-15v-89c0-9-7-17-17-19 12-17 31-28 56-33z m-92 53h33v87h-32z m-125-76l-26 2c3-10 7-24 11-40z m-24-152h5c1 1 5 10-1 45v-3c-8-18-8-38-4-42z m-50 182c35-7 67-11 93-11s32 1 45 4c26 6 45 17 56 33-8 3-14 10-14 18v89a19 19 0 0 0 7 14c-18 10-39 18-63 24s-69 11-106 9a10 10 0 0 1-10-9l-16-160a10 10 0 0 1 8-11z" fill="#fefee3" /><path d="M526 463h2v-88h-33v87h31z" fill="#4c956c" /><path d="M331 367m-13 0a13 13 0 1 0 26 0 13 13 0 1 0-26 0Z" fill="#ffc9b9" /><path d="M386 360m-13 0a13 13 0 1 0 26 0 13 13 0 1 0-26 0Z" fill="#ffc9b9" /><path d="M341 423m-13 0a13 13 0 1 0 26 0 13 13 0 1 0-26 0Z" fill="#ffc9b9" /><path d="M392 410m-13 0a13 13 0 1 0 26 0 13 13 0 1 0-26 0Z" fill="#ffc9b9" /><path d="M439 436m-13 0a13 13 0 1 0 26 0 13 13 0 1 0-26 0Z" fill="#ffc9b9" /><path d="M343 478m-13 0a13 13 0 1 0 26 0 13 13 0 1 0-26 0Z" fill="#ffc9b9" /><path d="M397 458m-13 0a13 13 0 1 0 26 0 13 13 0 1 0-26 0Z" fill="#ffc9b9" /><path d="M431 373m-13 0a13 13 0 1 0 26 0 13 13 0 1 0-26 0Z" fill="#ffc9b9" /><path d="M689 367m-13 0a13 13 0 1 0 26 0 13 13 0 1 0-26 0Z" fill="#ffc9b9" /><path d="M634 360m-13 0a13 13 0 1 0 26 0 13 13 0 1 0-26 0Z" fill="#ffc9b9" /><path d="M679 423m-13 0a13 13 0 1 0 26 0 13 13 0 1 0-26 0Z" fill="#ffc9b9" /><path d="M628 410m-13 0a13 13 0 1 0 26 0 13 13 0 1 0-26 0Z" fill="#ffc9b9" /><path d="M581 436m-13 0a13 13 0 1 0 26 0 13 13 0 1 0-26 0Z" fill="#ffc9b9" /><path d="M677 478m-13 0a13 13 0 1 0 26 0 13 13 0 1 0-26 0Z" fill="#ffc9b9" /><path d="M623 458m-13 0a13 13 0 1 0 26 0 13 13 0 1 0-26 0Z" fill="#ffc9b9" /><path d="M589 373m-13 0a13 13 0 1 0 26 0 13 13 0 1 0-26 0Z" fill="#ffc9b9" /><path d="M702 697zM325 703c62 28 102 59 113 68 22 18 44 48 65 89h23c25-44 45-73 64-89 39-33 82-53 106-63v-11H324z m187 143a13 13 0 1 1 13-13 13 13 0 0 1-13 13z m111-143a13 13 0 1 1-13 13 13 13 0 0 1 13-13z m-46 39a13 13 0 1 1-13 13 13 13 0 0 1 12-13z m-27-34a13 13 0 1 1-13 13 13 13 0 0 1 13-13z m-19 55a13 13 0 1 1-13 13 13 13 0 0 1 13-14z m-41-30a13 13 0 1 1 10 15 13 13 0 0 1-10-15z m0 41a13 13 0 1 1-13 13 13 13 0 0 1 13-13z m-19-19a13 13 0 1 1-13-13 13 13 0 0 1 13 13z m-27-50a13 13 0 1 1-13 13 13 13 0 0 1 13-14z m-50 5a13 13 0 1 1-13 13 13 13 0 0 1 13-14z" fill="#d68c45" /><path d="M444 717m-13 0a13 13 0 1 0 26 0 13 13 0 1 0-26 0Z" fill="#ffc9b9" /><path d="M550 721m-13 0a13 13 0 1 0 26 0 13 13 0 1 0-26 0Z" fill="#ffc9b9" /><path d="M490 787m-13 0a13 13 0 1 0 26 0 13 13 0 1 0-26 0Z" fill="#ffc9b9" /><path d="M501.518598 732.806621m-2.702852 12.715919a13 13 0 1 0 5.405704-25.431838 13 13 0 1 0-5.405704 25.431838Z" fill="#ffc9b9" /><path d="M458 755m-13 0a13 13 0 1 0 26 0 13 13 0 1 0-26 0Z" fill="#ffc9b9" /><path d="M394 722m-13 0a13 13 0 1 0 26 0 13 13 0 1 0-26 0Z" fill="#ffc9b9" /><path d="M531 775m-13 0a13 13 0 1 0 26 0 13 13 0 1 0-26 0Z" fill="#ffc9b9" /><path d="M512 833m-13 0a13 13 0 1 0 26 0 13 13 0 1 0-26 0Z" fill="#ffc9b9" /><path d="M576 755m-13 0a13 13 0 1 0 26 0 13 13 0 1 0-26 0Z" fill="#ffc9b9" /><path d="M623 716m-13 0a13 13 0 1 0 26 0 13 13 0 1 0-26 0Z" fill="#ffc9b9" /><path d="M743 660c-11-7-26-2-34 11l-3 6H313l-3-6c-8-13-23-17-34-11s-24 28-24 41 4 13 10 15 8 2 17 3c-1 13 2 30 9 52l19-6c-8-25-9-38-8-46h14c61 27 100 58 111 66s42 47 63 88l3 5h47l3-5c24-44 45-74 62-88 40-35 86-54 107-63l9-4h1c1 8 0 22-8 46l19 6c7-22 10-39 9-52 10 0 14-1 17-3s9-8 10-15-8-32-23-40z m-451 32l-6 6h-14c1-5 6-16 14-21s5 1 7 4 4 8-1 11z m402 16c-23 10-67 30-106 63-18 16-39 45-64 89h-22c-21-41-43-70-65-89-11-9-50-41-113-68v-5h371z m8-11z m31 1l-6-6v-12c2-3 5-4 6-3s13 15 14 21z" fill="#fefee3" /></svg>