<svg width="800px" height="800px" viewBox="0 -48.5 1121 1121" class="icon"  version="1.1" xmlns="http://www.w3.org/2000/svg"><path d="M1079.821076 473.959607c0 294.669468-238.875358 533.544826-533.544826 533.544825S12.718578 768.629074 12.718578 473.959607c0 0 140.416675-102.711008 275.386262 9.750801s285.201298-7.965081 285.201299-7.965081 132.001952-111.177119 262.654979 0c122.944884 104.650891 243.859957-1.78572 243.859958-1.78572z" fill="#89cff0" /><path d="M560.523468 1023.999859A560.125073 560.125073 0 0 1 0.000141 463.476532a26.978501 26.978501 0 0 1 11.048339-21.775505c1.61871-1.181915 40.300742-29.149628 97.122604-41.855217 53.327504-11.921928 133.312337-12.474345 211.460062 52.672312 48.625537 40.519139 105.241849 51.631713 168.29446 33.04224 47.327999-13.951739 80.395934-39.491387 82.605601-41.238566 4.303713-3.545746 40.01811-32.117263 92.009536-46.698501 51.387621-14.465615 128.571829-17.985667 205.126538 47.109602 43.114214 36.690762 90.62207 47.970345 141.200336 33.54327a196.185091 196.185091 0 0 0 67.4591-35.084899 26.978501 26.978501 0 0 1 44.732925 20.310958 560.125073 560.125073 0 0 1-560.536174 560.497633zM54.162694 478.211932c7.823765 272.53425 231.963723 491.830924 506.360774 491.830924 262.205338 0 478.52153-200.244713 504.048331-455.846742a242.806511 242.806511 0 0 1-38.656338 15.274971c-47.996038 14.234371-120.491125 18.216912-193.230303-43.679478-46.415869-39.504234-98.163204-51.862957-153.790304-36.754997a217.588036 217.588036 0 0 0-74.062409 36.896312l-0.436795 0.359714c-1.708638 1.361772-42.394788 33.633198-101.220767 50.97652-80.254618 23.664-155.665952 8.671661-218.101912-43.332611-49.203647-40.994475-104.766513-54.946214-165.146968-41.444117a240.327058 240.327058 0 0 0-65.763309 25.719504z" fill="#6050dc" /><path d="M913.183866 447.713379a46.647113 46.647113 0 0 1-11.562214-1.400313 39.465693 39.465693 0 0 1-25.860821-20.644976c-6.089433-11.857694-4.868977-26.593094 4.48357-54.162553 1.284691-3.854072 2.646462-7.566827 3.854072-10.996951-124.614982-128.096493-155.21631-135.689014-193.654251-145.170031-4.547804-1.130528-9.288313-2.299596-14.3243-3.661368a26.978501 26.978501 0 0 1-19.681459 25.693811 111.100037 111.100037 0 0 1-30.087452 4.252326c-27.569459 0-53.815686-10.881329-76.002292-31.911713A160.419307 160.419307 0 0 1 524.153879 176.926308c-9.904964-0.552417-33.401954 1.284691-77.453992 20.413733-11.022645 4.791896-29.201016 12.705589-46.043309 12.705589-11.202501 0-21.839739-3.494358-29.329485-13.746188-15.262124-20.79914 0.578111-45.259647 5.793954-53.301811 3.301655-5.138762 6.783166-9.750801 9.46817-13.155231 9.917811-41.367035 32.849537-73.56138 68.268455-95.747985C546.224862-23.112855 692.949368 7.437086 721.700742 14.207405c42.073615-3.648521 66.803908 1.361772 79.740742 16.071479A32.952312 32.952312 0 0 1 809.355177 59.10734a26.978501 26.978501 0 0 1-2.710697 7.091491c89.144676 61.459595 146.454721 209.700036 163.155698 257.541912 74.704755 18.563778 113.733653 49.768911 115.467985 51.169224a26.978501 26.978501 0 0 1-16.816599 47.918956l-87.55166 0.629499a26.862879 26.862879 0 0 1-5.793954-0.590958q-0.719427 0.578111-1.477394 1.104834a187.012401 187.012401 0 0 1-21.839739 12.846905c-14.645472 7.297042-27.389602 10.894176-38.604951 10.894176z m138.168467-30.832573zM620.390047 138.629684a53.224729 53.224729 0 0 1 9.13415 0.835048c8.119244 1.41316 18.062749 4.624886 31.295061 10.097668 16.700977 6.937329 29.958983 10.21329 42.703113 13.373629 22.906032 5.678332 46.595726 11.562215 82.220194 35.971334 30.318697 20.876221 68.576781 54.792051 119.013732 105.575869C880.835359 245.387467 834.971907 150.320367 774.668533 109.736994l-0.950671-0.66804c-18.165524-13.399322-27.749316-27.505224-28.597211-42.060768-5.871036 0-13.360782 0.398254-22.816104 1.284691a26.978501 26.978501 0 0 1-9.416782-0.732274c-1.464547-0.37256-149.782069-37.718514-229.471423 12.294489-23.12443 14.504156-37.628586 34.866501-44.270436 62.166175C515.417983 111.779651 547.278309 124.4467 557.645761 131.666661a26.002136 26.002136 0 0 1 9.13415 10.868482 106.822018 106.822018 0 0 0 20.722058 27.98056 29.676351 29.676351 0 0 1 4.740508-17.330476c3.635674-5.806801 11.832-14.555544 28.14757-14.555543z m177.210212-80.280312z" fill="#6050dc" /><path d="M546.263403 90.505176m-13.142384 0a13.142384 13.142384 0 1 0 26.284768 0 13.142384 13.142384 0 1 0-26.284768 0Z" fill="#6050dc" /><path d="M824.514526 373.31695a13.45071 13.45071 0 0 1-9.956352-4.380794c-0.693733-0.757967-62.551582-66.996611-148.03489-64.76125a13.489251 13.489251 0 1 1-0.70658-26.978501c98.111816-2.569381 165.827854 70.426735 168.66702 73.535686a13.489251 13.489251 0 0 1-9.969198 22.572012zM575.5415 388.412064a13.489251 13.489251 0 0 1-8.106397-24.280651c64.774097-48.574149 185.779098-12.422957 190.892166-10.868482a13.489251 13.489251 0 0 1-7.875152 25.809433c-1.117681-0.346866-113.052767-33.71028-166.84276 6.64185a13.425016 13.425016 0 0 1-8.067857 2.69785zM1068.258861 343.383661h-0.372561A13.489251 13.489251 0 0 1 1054.731069 329.52185c0.87359-32.117263-27.505224-96.583034-38.540716-118.705405a13.489251 13.489251 0 1 1 24.152182-12.011857c1.734332 3.494358 42.561797 86.074266 41.328495 131.449536a13.489251 13.489251 0 0 1-13.412169 13.129537zM515.674922 667.883643a270.491592 270.491592 0 0 1-75.167244-11.228195c-58.363491-16.880834-99.743373-46.65996-101.490552-47.918957a13.489251 13.489251 0 0 1 15.853081-21.839739 336.396216 336.396216 0 0 0 93.859491 44.039191c70.568051 20.221029 131.757861 10.110514 181.860792-30.036065 50.912286-40.788924 115.223894-48.355752 186.010342-21.839739a338.644425 338.644425 0 0 1 90.609223 51.618866A13.489251 13.489251 0 1 1 889.853886 651.349676a316.766145 316.766145 0 0 0-83.350721-47.238071c-61.986318-23.060195-115.493679-16.996456-159.018995 17.857198-38.039687 30.472859-82.746917 45.91484-131.809248 45.91484z" fill="#6050dc" /><path d="M463.400864 802.082416c-54.046931 0-113.7465-11.934775-153.083724-46.351635-70.735061-61.883543-140.468063-13.65626-143.410005-11.562214a13.489251 13.489251 0 0 1-15.724612-21.916821 150.103242 150.103242 0 0 1 55.42155-22.379309c30.331543-5.716873 76.027986-4.188091 121.46749 35.560234 47.327999 41.405576 131.449535 44.964169 189.106446 35.36753 44.257589-7.335583 70.773601-21.71127 76.683178-31.950253a13.489251 13.489251 0 0 1 23.368521 13.476404c-16.829446 29.162475-72.48224 41.238566-95.632363 45.07979a359.931747 359.931747 0 0 1-58.196481 4.676274z" fill="#9b5de5" /><path d="M849.874317 861.216721a13.425016 13.425016 0 0 1-7.130033-2.055505c-0.565264-0.346866-26.708716-16.31557-64.812637-24.524742-50.411257-10.842788-97.096911-3.674215-138.746578 21.313016a13.489251 13.489251 0 1 1-13.874657-23.12443c47.327999-28.391661 102.415529-36.806384 159.301626-24.332038 42.651726 9.352547 71.23609 27.055583 72.430852 27.800703a13.489251 13.489251 0 0 1-7.168573 24.922996z" fill="#6050dc" /></svg>